<svg width="22" height="25" viewBox="0 0 22 25" fill="none" xmlns="http://www.w3.org/2000/svg">
<path d="M20.2867 8.9533C19.505 8.08997 18.3267 7.5883 16.6934 7.4133V6.52663C16.6934 4.9283 16.0167 3.3883 14.8267 2.31497C13.625 1.2183 12.0617 0.704965 10.44 0.856632C7.65169 1.12497 5.3067 3.81996 5.3067 6.73663V7.4133C3.67336 7.5883 2.49503 8.08997 1.71336 8.9533C0.581696 10.2133 0.616696 11.8933 0.745029 13.06L1.5617 19.5583C1.8067 21.8333 2.72836 24.1666 7.74503 24.1666H14.255C19.2717 24.1666 20.1934 21.8333 20.4384 19.57L21.255 13.0483C21.3834 11.8933 21.4067 10.2133 20.2867 8.9533ZM10.6034 2.4783C11.77 2.3733 12.8784 2.73497 13.7417 3.51663C14.5934 4.28663 15.0717 5.3833 15.0717 6.52663V7.3433H6.92836V6.73663C6.92836 4.65996 8.64336 2.66497 10.6034 2.4783Z" fill="white"/>
</svg>
